<?xml version="1.0" standalone="no"?><!DOCTYPE svg PUBLIC "-//W3C//DTD SVG 1.1//EN" "http://www.w3.org/Graphics/SVG/1.1/DTD/svg11.dtd"><svg t="1567841392589" class="icon" viewBox="0 0 1024 1024" version="1.1" xmlns="http://www.w3.org/2000/svg" p-id="2177" xmlns:xlink="http://www.w3.org/1999/xlink" width="200" height="200"><defs><style type="text/css"></style></defs><path d="M789.8 282.3l-13.9-13.9c-3.8-3.9-8.8-5.8-13.9-5.8-5 0-10.1 1.9-13.9 5.8L511.3 505.1 274.6 268.4c-3.8-3.9-8.9-5.8-13.9-5.8s-10.1 1.9-13.9 5.8l-13.9 13.9c-7.6 7.7-7.6 20.2 0 27.9l236.7 236.7-222.9 222.7c-7.7 7.7-7.7 20.2 0 27.9l13.9 13.9c3.9 3.9 8.9 5.8 13.9 5.8s10.1-1.9 13.9-5.8l222.8-222.8L734 811.4c3.8 3.9 8.9 5.8 13.9 5.8 5.1 0 10.1-1.9 13.9-5.8l13.9-13.9c7.7-7.7 7.7-20.2 0-27.9L553.1 546.8l236.7-236.7c7.7-7.7 7.7-20.2 0-27.8z" fill="#cdcdcd" p-id="2178"></path></svg>