<?xml version="1.0" standalone="no"?><!DOCTYPE svg PUBLIC "-//W3C//DTD SVG 1.1//EN" "http://www.w3.org/Graphics/SVG/1.1/DTD/svg11.dtd"><svg t="1562421991680" class="icon" viewBox="0 0 1024 1024" version="1.1" xmlns="http://www.w3.org/2000/svg" p-id="2255" xmlns:xlink="http://www.w3.org/1999/xlink" width="200" height="200"><defs><style type="text/css"></style></defs><path d="M93.556364 569.134545c-40.843636-40.797091-70.306909-88.948364-84.154182-141.614545-13.614545-49.896727-12.846545-103.563636 5.003636-157.998545C30.301091 222.138182 58.274909 178.548364 94.021818 143.522909c35.328-34.280727 79.406545-61.765818 127.534545-76.869818 55.691636-17.92 111.127273-17.92 162.280727-4.538182 46.638545 12.334545 89.972364 35.514182 128.279273 67.281455 38.539636-31.767273 81.384727-54.946909 127.767273-67.281455 51.898182-13.381818 107.310545-12.846545 163.048727 4.538182 48.104727 15.639273 91.997091 42.589091 128.256 77.358545 35.025455 34.769455 62.254545 78.103273 78.103273 125.486545l0.279273 0c17.873455 54.434909 18.641455 108.125091 5.050182 157.998545-13.893818 52.666182-43.357091 100.817455-83.432727 141.614545l-2.513455 1.768727L539.345455 959.744c-15.104 15.639273-39.540364 15.639273-55.179636-0.744727L93.556364 569.134545z" p-id="2256"></path><path d="M310.365091 99.165091 310.365091 99.165091c20.619636 0 41.355636 2.699636 61.579636 7.982545 39.354182 10.402909 76.520727 29.975273 110.475636 58.112l29.602909 24.552727 29.672727-24.459636c34.420364-28.346182 71.447273-47.941818 109.800727-58.135273 20.270545-5.236364 41.029818-7.866182 61.696-7.866182 25.297455 0 50.850909 3.956364 75.333818 11.613091 40.471273 13.149091 78.661818 36.212364 109.847273 66.117818 30.254545 30.021818 53.341091 67.118545 66.769455 107.240727l2.722909 7.959273c12.125091 41.565091 12.753455 82.920727 1.722182 123.392-11.008 41.704727-34.746182 82.408727-68.770909 117.922909l-2.234182 1.559273-2.839273 2.839273L512.116364 921.157818 126.440727 536.203636c-35.770182-35.746909-60.672-77.428364-72.145455-120.925091-11.659636-42.728727-10.193455-86.900364 4.212364-130.932364 13.381818-39.819636 36.933818-77.032727 67.956364-107.403636 31.511273-30.580364 69.213091-53.341091 109.358545-65.954909C260.212364 103.144727 285.300364 99.165091 310.365091 99.165091M310.341818 52.619636c-29.090909 0-58.903273 4.445091-88.762182 14.056727-48.128 15.104-92.229818 42.589091-127.534545 76.869818-35.746909 35.025455-63.720727 78.615273-79.639273 125.998545-17.850182 54.434909-18.618182 108.125091-5.003636 157.998545 13.870545 52.666182 43.310545 100.817455 84.154182 141.614545l390.609455 389.864727c7.912727 8.285091 18.059636 12.381091 28.136727 12.381091 9.844364 0 19.572364-3.909818 27.042909-11.636364l389.329455-388.840727 2.513455-1.768727c40.075636-40.797091 69.538909-88.948364 83.432727-141.614545 13.591273-49.896727 12.823273-103.563636-5.050182-157.998545l-0.279273 0c-15.872-47.383273-43.101091-90.717091-78.103273-125.486545-36.258909-34.792727-80.128-61.719273-128.256-77.358545-30.161455-9.402182-60.253091-13.870545-89.716364-13.870545-24.971636 0-49.524364 3.211636-73.309091 9.332364-46.382545 12.334545-89.227636 35.514182-127.767273 67.281455C473.809455 97.652364 430.475636 74.472727 383.837091 62.138182 360.145455 55.924364 335.499636 52.619636 310.341818 52.619636L310.341818 52.619636z" p-id="2257"></path></svg>