<?xml version="1.0" standalone="no"?><!DOCTYPE svg PUBLIC "-//W3C//DTD SVG 1.1//EN" "http://www.w3.org/Graphics/SVG/1.1/DTD/svg11.dtd"><svg t="1562474601512" class="icon" viewBox="0 0 1024 1024" version="1.1" xmlns="http://www.w3.org/2000/svg" p-id="12441" xmlns:xlink="http://www.w3.org/1999/xlink" width="200" height="200"><defs><style type="text/css"></style></defs><path d="M511.997953 146.497539c-201.859427 0-365.500415 163.640987-365.500415 365.499391 0 201.863521 163.640987 365.504508 365.500415 365.504508 201.862497 0 365.503485-163.640987 365.503485-365.504508C877.501438 310.138526 713.860451 146.497539 511.997953 146.497539L511.997953 146.497539zM719.389374 685.199691 531.835767 685.199691l0 0.01228-27.013237 0 0-0.01228L317.389674 685.199691c-0.339738-17.199731 0.911766-48.338938 0.911766-61.386092 6.647397-19.335371 28.732391-22.12081 47.199998-29.899984 20.294209-8.553817 42.74657-18.451234 62.956867-26.725688 5.77247-1.595334 11.564383-3.189645 17.339924-4.696975 6.887874-4.776793 13.606903-20.518313 17.336854-28.380374l8.201799-1.979074c-1.818415-10.348696-8.253988-11.103896-10.93198-18.495236-1.047866-10.996448-2.12643-22.013363-3.149736-32.993438 0 0.535189-7.586792-1.399883-8.538467-2.006703-10.692526-6.684236-10.912537-33.905204-11.952216-45.205575-0.438998-5.184069 6.779404-9.437953 4.713348-18.931165-11.724019-55.486732 5.091972-81.47257 31.618115-90.115414 18.419512-7.454786 52.815903-21.24486 84.934414-1.566682l7.867178 7.383154 12.926404 2.230808c6.460132 3.720741 10.54517 16.068977 10.54517 16.068977l-0.023536 0c3.361561 13.666254 3.741207 14.817474 3.393283 28.828582-0.155543 5.412266-3.241834 30.43108-2.418073 38.045501 0.671289 6.340405 2.230808 6.835685 4.816702 12.056594 4.313236 9.033747 2.925632 21.565155 1.231037 30.714536-0.915859 5.021364-2.854001 12.143575-5.752004 16.244986-3.218298 4.489244-9.749038 4.556783-12.551874 9.821693-4.085038 7.586792-1.782599 18.151405-4.313236 26.302039-3.03308 9.289574-10.508331 9.897418-11.072173 21.99699 3.681856 0.572028 7.339152 1.039679 11.072173 1.599428 3.685949 7.830339 10.349719 23.619954 17.261129 28.380374 5.752004 1.543146 11.539824 3.105734 17.300015 4.701069 20.294209 8.262174 42.683125 18.171871 62.948681 26.725688 18.448164 7.770987 40.568974 10.564613 47.276746 29.899984C718.53389 636.960013 719.792557 668.00303 719.389374 685.199691L719.389374 685.199691zM719.389374 685.199691" p-id="12442"></path></svg>